<svg xmlns="http://www.w3.org/2000/svg" width="73" height="73" viewBox="0 0 73 73">
  <g id="Group_425" data-name="Group 425" transform="translate(-661 -2587)">
    <g id="Data_managament" data-name="Data managament" transform="translate(517 -2166)">
      <circle id="Ellipse_35" data-name="Ellipse 35" cx="36.5" cy="36.5" r="36.5" transform="translate(144 4753)" fill="#fff"/>
    </g>
    <g id="list" transform="translate(620 2605)">
      <g id="Group_387" data-name="Group 387" transform="translate(70.832)">
        <g id="Group_386" data-name="Group 386">
          <path id="Path_863" data-name="Path 863" d="M172.526,2.277h-2.473a3.417,3.417,0,0,0-6.443,0h-2.471A1.139,1.139,0,0,0,160,3.416V7.971a1.139,1.139,0,0,0,1.139,1.139h11.387a1.139,1.139,0,0,0,1.139-1.139V3.416A1.139,1.139,0,0,0,172.526,2.277Z" transform="translate(-160)" fill="#f60"/>
        </g>
      </g>
      <g id="Group_389" data-name="Group 389" transform="translate(64 4.555)">
        <g id="Group_388" data-name="Group 388">
          <path id="Path_864" data-name="Path 864" d="M89.051,64H86.774v3.416a3.42,3.42,0,0,1-3.416,3.416H71.971a3.42,3.42,0,0,1-3.416-3.416V64H66.277A2.281,2.281,0,0,0,64,66.277V93.606a2.252,2.252,0,0,0,2.277,2.277H89.051a2.252,2.252,0,0,0,2.277-2.277V66.277A2.252,2.252,0,0,0,89.051,64ZM77.332,84.164l-4.555,4.555a1.144,1.144,0,0,1-1.612,0l-2.277-2.277a1.139,1.139,0,0,1,1.61-1.61L71.971,86.3l3.749-3.749a1.139,1.139,0,0,1,1.612,1.61Zm0-9.11-4.555,4.555a1.144,1.144,0,0,1-1.612,0l-2.277-2.277a1.139,1.139,0,0,1,1.61-1.61l1.473,1.471,3.749-3.749a1.139,1.139,0,0,1,1.612,1.61Zm8.3,11.719H81.08a1.139,1.139,0,0,1,0-2.277h4.555a1.139,1.139,0,1,1,0,2.277Zm0-9.11H81.08a1.139,1.139,0,0,1,0-2.277h4.555a1.139,1.139,0,1,1,0,2.277Z" transform="translate(-64 -64)" fill="#f60"/>
        </g>
      </g>
    </g>
  </g>
</svg>
