<svg xmlns="http://www.w3.org/2000/svg" width="28.938" height="28.938" viewBox="0 0 28.938 28.938">
  <path id="development" d="M39.774,16.141l-1.306,1.306H36.739a.482.482,0,0,0-.482.482v1.729L34.61,21.305H32.88a.482.482,0,0,0-.482.482v1.729l-1.647,1.647H29.022a.482.482,0,0,0-.482.482v1.729L26.411,29.5H24.762a5.766,5.766,0,0,1,2.591-3.913l-.52-.812a6.753,6.753,0,0,0,3.636,12.443h6.195a9.163,9.163,0,0,1-15.358-6.752h-.965a10.116,10.116,0,0,0,.291,2.412H16.965V28.057h3.858a.482.482,0,0,0,.446-.3l.779-1.881a.482.482,0,0,0-.1-.526l-2.728-2.728,3.41-3.41,2.728,2.728a.482.482,0,0,0,.526.1l1.881-.779a.482.482,0,0,0,.3-.446V16.965H32.88v2.894h.965V16.482A.482.482,0,0,0,33.363,16H27.575a.482.482,0,0,0-.482.482V20.5l-1.285.532-2.841-2.842a.482.482,0,0,0-.682,0l-4.092,4.092a.482.482,0,0,0,0,.682l2.842,2.841L20.5,27.093H16.482a.482.482,0,0,0-.482.482v5.788a.482.482,0,0,0,.482.482H20.5l.532,1.285-2.842,2.841a.482.482,0,0,0,0,.682l4.092,4.092a.482.482,0,0,0,.682,0L25.808,39.9l1.285.532v4.018a.482.482,0,0,0,.482.482h5.788a.482.482,0,0,0,.482-.482V40.437L35.13,39.9l2.841,2.842a.482.482,0,0,0,.682,0l4.092-4.092a.482.482,0,0,0,0-.682L42,37.221h2.46a.482.482,0,0,0,.482-.482v-16.4a.482.482,0,0,0-.482-.482H40.6a.482.482,0,0,0-.482.482v3.376H36.739a.482.482,0,0,0-.482.482v2.412H32.88a.482.482,0,0,0-.482.482v2.894H29.022a.482.482,0,0,0-.482.482V32.4H25.012a5.761,5.761,0,0,1-.331-1.929h1.929a.482.482,0,0,0,.341-.141l2.27-2.27h1.729a.482.482,0,0,0,.482-.482V25.846L33.08,24.2H34.81a.482.482,0,0,0,.482-.482V21.987l1.647-1.647h1.729a.482.482,0,0,0,.482-.482V18.129l1.164-1.164h4.623V16H40.115a.482.482,0,0,0-.341.141ZM22.625,41.723l-3.41-3.41,2.6-2.595a10.207,10.207,0,0,0,3.41,3.41Zm5.432,2.25V40.306a10.127,10.127,0,0,0,4.823,0v3.668Zm13.666-5.661-3.41,3.41-2.594-2.594a10.132,10.132,0,0,0,2.3-1.908h2.614Zm-.644-17.49h2.894V36.257H41.08Zm-3.858,3.858h2.894V36.257H37.221Zm-3.858,2.894h2.894v8.681H33.363ZM29.5,30.951H32.4v5.305H30.469a5.8,5.8,0,0,1-.964-.081Zm-.965,2.412v2.563a5.819,5.819,0,0,1-3.081-2.563Zm1.929-6.27H29.5v-.965h.965Zm3.858-3.858h-.965V22.27h.965Zm3.858-3.858h-.965v-.965h.965Z" transform="translate(-16 -16)" fill="#fff"/>
</svg>
