<svg xmlns="http://www.w3.org/2000/svg" width="58" height="58" viewBox="0 0 58 58">
  <g id="Group_4790" data-name="Group 4790" transform="translate(-243 -2181)">
    <circle id="Ellipse_331" data-name="Ellipse 331" cx="29" cy="29" r="29" transform="translate(243 2181)" fill="#1b1aa0"/>
    <path id="Icon_material-language" data-name="Icon material-language" d="M19.5,2A17.516,17.516,0,1,0,37.032,19.516,17.507,17.507,0,0,0,19.5,2ZM31.637,12.51H26.47a27.411,27.411,0,0,0-2.417-6.236A14.065,14.065,0,0,1,31.637,12.51ZM19.516,5.573a24.674,24.674,0,0,1,3.346,6.936H16.17A24.674,24.674,0,0,1,19.516,5.573ZM5.959,23.019a13.7,13.7,0,0,1,0-7.006h5.92a28.928,28.928,0,0,0-.245,3.5,28.928,28.928,0,0,0,.245,3.5Zm1.436,3.5h5.167a27.411,27.411,0,0,0,2.417,6.236,13.99,13.99,0,0,1-7.584-6.236ZM12.562,12.51H7.395a13.99,13.99,0,0,1,7.584-6.236,27.411,27.411,0,0,0-2.417,6.236Zm6.954,20.949a24.674,24.674,0,0,1-3.346-6.936h6.691A24.674,24.674,0,0,1,19.516,33.458Zm4.1-10.439h-8.2a25.771,25.771,0,0,1-.28-3.5,25.547,25.547,0,0,1,.28-3.5h8.2a25.547,25.547,0,0,1,.28,3.5A25.77,25.77,0,0,1,23.615,23.019Zm.438,9.739a27.411,27.411,0,0,0,2.417-6.236h5.167A14.065,14.065,0,0,1,24.052,32.758Zm3.1-9.739a28.928,28.928,0,0,0,.245-3.5,28.928,28.928,0,0,0-.245-3.5h5.92a13.7,13.7,0,0,1,0,7.006Z" transform="translate(252.632 2189.996)" fill="#fff"/>
  </g>
</svg>
