<svg xmlns="http://www.w3.org/2000/svg" width="35" height="35" viewBox="0 0 35 35">
  <g id="Instagram" transform="translate(0.076)">
    <circle id="Ellipse_49" data-name="Ellipse 49" cx="17.5" cy="17.5" r="17.5" transform="translate(-0.076)" fill="#01f"/>
    <path id="Icon_awesome-instagram" data-name="Icon awesome-instagram" d="M7.614,5.685A3.769,3.769,0,0,0,3.709,9.314a3.769,3.769,0,0,0,3.905,3.628A3.769,3.769,0,0,0,11.52,9.314,3.769,3.769,0,0,0,7.614,5.685Zm0,5.987A2.458,2.458,0,0,1,5.075,9.314,2.456,2.456,0,0,1,7.614,6.955a2.456,2.456,0,0,1,2.539,2.359A2.458,2.458,0,0,1,7.614,11.673ZM12.59,5.537a.913.913,0,0,1-1.822,0,.913.913,0,0,1,1.822,0Zm2.587.859a4.028,4.028,0,0,0-1.23-2.965,4.736,4.736,0,0,0-3.192-1.143c-1.258-.066-5.027-.066-6.285,0a4.73,4.73,0,0,0-3.192,1.14A4.041,4.041,0,0,0,.048,6.393c-.071,1.168-.071,4.671,0,5.839A4.028,4.028,0,0,0,1.279,15.2,4.742,4.742,0,0,0,4.47,16.34c1.258.066,5.027.066,6.285,0A4.7,4.7,0,0,0,13.946,15.2a4.054,4.054,0,0,0,1.23-2.965c.071-1.168.071-4.667,0-5.836Zm-1.625,7.09A2.487,2.487,0,0,1,12.1,14.831a18.04,18.04,0,0,1-4.49.284,18.18,18.18,0,0,1-4.49-.284,2.487,2.487,0,0,1-1.448-1.345A14.518,14.518,0,0,1,1.37,9.314a14.631,14.631,0,0,1,.306-4.172A2.487,2.487,0,0,1,3.124,3.8a18.04,18.04,0,0,1,4.49-.284A18.18,18.18,0,0,1,12.1,3.8a2.487,2.487,0,0,1,1.448,1.345,14.518,14.518,0,0,1,.306,4.172A14.509,14.509,0,0,1,13.552,13.485Z" transform="translate(9.692 8.276)" fill="#fff"/>
  </g>
</svg>
