<svg id="instagram_1_" data-name="instagram (1)" xmlns="http://www.w3.org/2000/svg" width="12.622" height="12.622" viewBox="0 0 12.622 12.622">
  <path id="Path_858" data-name="Path 858" d="M9.2,0H3.416A3.421,3.421,0,0,0,0,3.417V9.206a3.421,3.421,0,0,0,3.417,3.417H9.2a3.421,3.421,0,0,0,3.417-3.417V3.417A3.421,3.421,0,0,0,9.2,0ZM6.31,9.762A3.451,3.451,0,1,1,9.761,6.311,3.455,3.455,0,0,1,6.31,9.762ZM9.844,3.674a1.02,1.02,0,1,1,1.02-1.02A1.021,1.021,0,0,1,9.844,3.674Zm0,0" transform="translate(0.001 0)" fill="#fff"/>
  <path id="Path_859" data-name="Path 859" d="M148.731,146.02a2.711,2.711,0,1,0,2.711,2.711A2.714,2.714,0,0,0,148.731,146.02Zm0,0" transform="translate(-142.42 -142.42)" fill="#fff"/>
  <path id="Path_860" data-name="Path 860" d="M388.272,96.3a.28.28,0,1,0,.28.28A.28.28,0,0,0,388.272,96.3Zm0,0" transform="translate(-378.427 -93.927)" fill="#fff"/>
</svg>
