<svg xmlns="http://www.w3.org/2000/svg" width="437.823" height="437.881" viewBox="0 0 437.823 437.881">
  <path id="Intersection_10" data-name="Intersection 10" d="M886.993,817.99l194.9-337.57q1.534,2.37,3.01,4.785L892.648,818.2C890.762,818.151,888.868,818.082,886.993,817.99Zm204-322.161c.937,1.745,1.844,3.491,2.734,5.263l-182.9,316.791c-1.972.115-3.941.2-5.926.265ZM869.867,816.477,1072,466.376c1.1,1.437,2.189,2.9,3.253,4.365L875.28,817.1Q872.563,816.822,869.867,816.477Zm229.32-303.663c.828,1.926,1.633,3.875,2.407,5.829L929.955,815.931c-2.071.3-4.159.579-6.249.824ZM853.448,813.739,1061.4,453.551c1.171,1.313,2.332,2.646,3.471,3.987L858.64,814.745Q856.03,814.272,853.448,813.739Zm252.84-282.047c.7,2.159,1.369,4.342,2,6.53L950.244,811.967q-3.3.81-6.651,1.52ZM837.682,809.869l212.478-368.023q1.859,1.8,3.673,3.637L842.67,811.229C841,810.794,839.339,810.341,837.682,809.869Zm274.325-256.906q.8,3.7,1.469,7.455L972.038,805.4q-3.567,1.283-7.184,2.443ZM822.53,804.935l215.783-373.748q1.954,1.634,3.864,3.307L827.325,806.63C825.717,806.082,824.122,805.519,822.53,804.935Zm-14.566-5.947,217.925-377.457c1.357.979,2.713,1.981,4.047,2.99L812.574,801Q810.252,800.021,807.964,798.988ZM1115.843,577.5c.288,2.914.519,5.856.691,8.8L995.959,795.139c-2.619,1.314-5.286,2.584-7.964,3.794ZM793.965,792.059,1012.9,412.849q2.132,1.318,4.226,2.679L798.394,794.387C796.911,793.629,795.427,792.849,793.965,792.059Zm-13.442-7.895L999.358,405.13c1.474.772,2.95,1.567,4.4,2.371L784.773,786.8C783.349,785.94,781.926,785.057,780.523,784.164Zm336.252-177.105q-.2,5.622-.673,11.165l-92.68,160.526q-4.594,3.218-9.354,6.2ZM767.637,775.305,985.256,398.379c1.54.67,3.063,1.355,4.584,2.059L771.709,778.252Q769.658,776.8,767.637,775.305Zm-12.321-9.837L970.584,392.614c1.595.561,3.191,1.143,4.769,1.74L759.206,768.732Q757.244,767.123,755.317,765.468Zm356.363-118.408q-2.128,9.557-5.076,18.792l-46.541,80.612q-6.584,7.248-13.794,13.892Zm-368.1,107.562L955.323,387.871c1.659.449,3.318.92,4.961,1.407L747.278,758.214Q745.409,756.442,743.578,754.623Zm-11.127-11.9L939.441,384.2c1.727.331,3.452.684,5.164,1.056l-208.654,361.4Q734.175,744.706,732.451,742.719Zm-10.472-13.038,200.919-348c1.805.2,3.59.43,5.382.679L725.263,733.992Q723.592,731.854,721.979,729.681ZM712.224,715.4l193.41-335c1.881.065,3.751.154,5.62.266L715.27,720.124Q713.716,717.78,712.224,715.4Zm-8.948-15.679,184.3-319.21q2.934-.137,5.886-.2l-187.408,324.6C705.1,703.193,704.18,701.469,703.276,699.72Zm-8.01-17.3,173.32-300.2q3.087-.413,6.2-.74L697.723,688.162Q696.455,685.31,695.266,682.417Zm-6.875-19.27L848.475,385.875c2.18-.5,4.385-.976,6.59-1.414L690.457,669.57Q689.377,666.38,688.392,663.147Zm-5.422-21.786L826.917,392.037c2.354-.807,4.709-1.569,7.1-2.3L684.524,648.67Q683.686,645.038,682.97,641.361Zm-3.406-25.277,123.781-214.4q3.875-1.858,7.833-3.568L680.385,624.662Q679.892,620.4,679.564,616.083Zm-.195-30.839L776.522,416.97q4.472-2.984,9.093-5.75L678.952,595.966Q679.032,590.571,679.369,585.244Zm7.258-43.748,55.511-96.148q6.045-6.117,12.561-11.757L682.778,558.162Q684.384,549.7,686.627,541.5Z" transform="translate(-678.952 -380.314)" fill="#fff" opacity="0.07"/>
</svg>
