<svg xmlns="http://www.w3.org/2000/svg" width="58" height="58" viewBox="0 0 58 58">
  <g id="Group_300" data-name="Group 300" transform="translate(-242 -1428)">
    <circle id="Ellipse_91" data-name="Ellipse 91" cx="29" cy="29" r="29" transform="translate(242 1428)" fill="#1b1aa0"/>
    <g id="Data_Analysis" data-name="Data Analysis" transform="translate(249 1435.406)">
      <path id="Path_71" data-name="Path 71" d="M33.49,14.533h-.571a3.955,3.955,0,1,0-5.89,0H21.624V10.139a.439.439,0,0,0-.439-.439H19.426a.439.439,0,0,0-.439.439v4.395h-.439V8.381a.439.439,0,0,0-.439-.439H16.35a.439.439,0,0,0-.439.439v6.153h-.439V11.457a.439.439,0,0,0-.439-.439H13.274a.439.439,0,0,0-.439.439v3.076H9.758A1.76,1.76,0,0,0,8,16.291V29.476a1.76,1.76,0,0,0,1.758,1.758h9.059l-.586,1.758H16.79a.439.439,0,0,0-.439.439v.879H11.955a.439.439,0,1,0,0,.879H31.292a.439.439,0,1,0,0-.879H26.9v-.879a.439.439,0,0,0-.439-.439H25.017l-.586-1.758H33.49a1.76,1.76,0,0,0,1.758-1.758V16.291A1.76,1.76,0,0,0,33.49,14.533ZM30.414,8.852a3.082,3.082,0,0,1,2.605,2.605H30.414Zm-.258,3.484h2.863a3.074,3.074,0,0,1-4.886,2.023ZM26.9,11.9a3.081,3.081,0,0,1,2.637-3.045v2.863l-2.023,2.023A3.06,3.06,0,0,1,26.9,11.9Zm-7.032-1.318h.879v8.35h-.879Zm-1.318,4.834h.439v3.516h-.439ZM16.79,8.82h.879V18.928H16.79Zm-1.318,6.592h.439v3.516h-.439ZM13.713,11.9h.879v7.032h-.879ZM26.019,33.871v.439h-8.79v-.439Zm-6.861-.879.586-1.758H23.5l.586,1.758Zm15.212-3.516a.88.88,0,0,1-.879.879H9.758a.88.88,0,0,1-.879-.879V28.6h25.49Zm0-1.758H8.879V16.291a.88.88,0,0,1,.879-.879h3.076v3.516h-.439V16.291a.439.439,0,0,0-.439-.439H10.2a.439.439,0,0,0-.439.439v3.076a.439.439,0,0,0,.439.439H24.261a.439.439,0,0,0,.439-.439V16.291a.439.439,0,0,0-.439-.439H22.5a.439.439,0,0,0-.439.439v2.637h-.439V15.412h6.542a3.941,3.941,0,0,0,3.617,0H33.49a.88.88,0,0,1,.879.879ZM11.516,16.731v2.2h-.879v-2.2Zm11.426,2.2v-2.2h.879v2.2Z" transform="translate(0 0)" fill="#fff"/>
      <path id="Path_72" data-name="Path 72" d="M43.076,392H40.439a.439.439,0,0,0,0,.879h2.637a.439.439,0,0,0,0-.879Z" transform="translate(-30.242 -362.964)" fill="#fff"/>
      <path id="Path_73" data-name="Path 73" d="M112.879,392h-.439a.439.439,0,0,0,0,.879h.439a.439.439,0,0,0,0-.879Z" transform="translate(-98.287 -362.964)" fill="#fff"/>
      <path id="Path_74" data-name="Path 74" d="M336.439,162.637a.438.438,0,0,0,.311-.129l1.629-1.629h3.773a.439.439,0,1,0,0-.879H338.2a.439.439,0,0,0-.311.129l-1.758,1.758a.439.439,0,0,0,.311.75Z" transform="translate(-309.981 -143.709)" fill="#fff"/>
      <path id="Path_75" data-name="Path 75" d="M62.386,243.076a1.318,1.318,0,0,0-1.14.658l-4.6-2.684a1.318,1.318,0,0,0-2.588.033l-4.63,3.472a1.317,1.317,0,0,0-2.279.12l-4.576-1.907a1.319,1.319,0,1,0-.108.907l4.576,1.907a1.318,1.318,0,0,0,2.579-.073l4.63-3.472a1.317,1.317,0,0,0,2.245-.058l4.6,2.684a1.318,1.318,0,1,0,1.291-1.587Zm-20.656,0a.441.441,0,1,1-.441-.442.441.441,0,0,1,.441.442Zm6.592,2.635a.44.44,0,0,1-.439-.439v0a.439.439,0,1,1,.439.442Zm7.032-3.955a.439.439,0,1,1,.439-.439A.439.439,0,0,1,55.354,241.758Zm7.032,3.076a.439.439,0,1,1,.439-.439A.439.439,0,0,1,62.386,244.834Z" transform="translate(-30.214 -219.314)" fill="#fff"/>
      <path id="Path_76" data-name="Path 76" d="M323.516,344h-3.076a.439.439,0,0,0,0,.879h3.076a.439.439,0,1,0,0-.879Z" transform="translate(-294.86 -317.601)" fill="#fff"/>
      <path id="Path_77" data-name="Path 77" d="M353.758,320h-1.318a.439.439,0,1,0,0,.879h1.318a.439.439,0,0,0,0-.879Z" transform="translate(-325.102 -294.919)" fill="#fff"/>
      <path id="Path_78" data-name="Path 78" d="M40.439,232.879h4.834a.439.439,0,1,0,0-.879H40.439a.439.439,0,0,0,0,.879Z" transform="translate(-30.242 -211.753)" fill="#fff"/>
      <path id="Path_79" data-name="Path 79" d="M152.439,232.879h.439a.439.439,0,0,0,0-.879h-.439a.439.439,0,0,0,0,.879Z" transform="translate(-136.089 -211.753)" fill="#fff"/>
    </g>
  </g>
</svg>
