<svg xmlns="http://www.w3.org/2000/svg" width="15.832" height="10.96" viewBox="0 0 15.832 10.96">
  <g id="Icon_ionic-ios-mail" data-name="Icon ionic-ios-mail" transform="translate(-3.375 -7.875)">
    <path id="Path_175" data-name="Path 175" d="M19.077,10.337l-4.095,4.171a.074.074,0,0,0,0,.107l2.866,3.052a.494.494,0,0,1,0,.7.5.5,0,0,1-.7,0l-2.854-3.041a.078.078,0,0,0-.11,0l-.7.708a3.064,3.064,0,0,1-2.184.921,3.126,3.126,0,0,1-2.23-.948l-.67-.681a.078.078,0,0,0-.11,0L5.438,18.367a.5.5,0,0,1-.7,0,.494.494,0,0,1,0-.7L7.6,14.615a.081.081,0,0,0,0-.107L3.5,10.337a.075.075,0,0,0-.129.053v8.346a1.221,1.221,0,0,0,1.218,1.218h13.4a1.221,1.221,0,0,0,1.218-1.218V10.39A.076.076,0,0,0,19.077,10.337Z" transform="translate(0 -1.119)" fill="#fff"/>
    <path id="Path_176" data-name="Path 176" d="M11.681,14.843a2.069,2.069,0,0,0,1.488-.624L19.14,8.141a1.2,1.2,0,0,0-.754-.266H4.979a1.188,1.188,0,0,0-.754.266L10.2,14.219A2.069,2.069,0,0,0,11.681,14.843Z" transform="translate(-0.39)" fill="#fff"/>
  </g>
</svg>
