<svg xmlns="http://www.w3.org/2000/svg" width="73" height="73" viewBox="0 0 73 73">
  <g id="Group_426" data-name="Group 426" transform="translate(-718 -2721)">
    <g id="Data_managament" data-name="Data managament" transform="translate(574 -2032)">
      <circle id="Ellipse_35" data-name="Ellipse 35" cx="36.5" cy="36.5" r="36.5" transform="translate(144 4753)" fill="#fff"/>
    </g>
    <g id="dollar" transform="translate(734 2666.204)">
      <g id="Group_403" data-name="Group 403" transform="translate(17.099 96.27)">
        <g id="Group_402" data-name="Group 402">
          <path id="Path_875" data-name="Path 875" d="M196.213,309.449v-.16c-.819-.009-1.6-.053-2.358-.116a10.744,10.744,0,0,1-1.709,2.928,27.786,27.786,0,0,0,4.12.365Z" transform="translate(-192.146 -309.173)" fill="#f60"/>
        </g>
      </g>
      <g id="Group_405" data-name="Group 405" transform="translate(0 83.58)">
        <g id="Group_404" data-name="Group 404" transform="translate(0 0)">
          <path id="Path_876" data-name="Path 876" d="M17.562,173.648a8.934,8.934,0,0,0-6.069-6.683,9.064,9.064,0,0,0-2.625-.392A8.867,8.867,0,1,0,14.839,182a8.818,8.818,0,0,0,2.9-6.559A9.307,9.307,0,0,0,17.562,173.648Zm-8.694.6a3.359,3.359,0,0,1,.908,6.594v.783a.89.89,0,1,1-1.78,0v-.774A3.38,3.38,0,0,1,5.5,177.6a.89.89,0,0,1,1.78,0,1.58,1.58,0,1,0,1.575-1.584,3.357,3.357,0,0,1-.854-6.6v-.383a.89.89,0,1,1,1.78,0v.4a3.364,3.364,0,0,1,2.447,3.239.89.89,0,0,1-1.78,0,1.584,1.584,0,1,0-1.584,1.575Z" transform="translate(0 -166.573)" fill="#f60"/>
        </g>
      </g>
      <g id="Group_407" data-name="Group 407" transform="translate(19.315 91.385)">
        <g id="Group_406" data-name="Group 406" transform="translate(0 0)">
          <path id="Path_877" data-name="Path 877" d="M218.87,257.486l-.053-3.15c-.552-.009-1.095-.027-1.611-.062.027.356.044.7.044,1.05a10.937,10.937,0,0,1-.2,2.082C217.633,257.459,218.247,257.486,218.87,257.486Z" transform="translate(-217.046 -254.273)" fill="#f60"/>
        </g>
      </g>
      <g id="Group_409" data-name="Group 409" transform="translate(12.605 79.869)">
        <g id="Group_408" data-name="Group 408" transform="translate(0 0)">
          <path id="Path_878" data-name="Path 878" d="M159.925,124.873a10.672,10.672,0,0,1-1.931.774,29.4,29.4,0,0,1-14.425.071,9.86,9.86,0,0,1-1.922-.739l.062,2.51a10.268,10.268,0,0,1,2.785,1.575c.027.009.045.009.071.018a25.463,25.463,0,0,0,6.06.667,25.19,25.19,0,0,0,6.852-.863c1.931-.587,2.358-1.2,2.358-1.317a.511.511,0,0,1,.089-.365Z" transform="translate(-141.646 -124.873)" fill="#f60"/>
        </g>
      </g>
      <g id="Group_411" data-name="Group 411" transform="translate(12.516 75.473)">
        <g id="Group_410" data-name="Group 410" transform="translate(0 0)">
          <path id="Path_879" data-name="Path 879" d="M156.558,76.336a24.845,24.845,0,0,0-6.852-.863,24.038,24.038,0,0,0-6.763.863c-1.878.57-2.287,1.13-2.3,1.308,0,0,.009,0,.009.018.044.2.578.8,2.492,1.353a24.434,24.434,0,0,0,6.559.8,25.146,25.146,0,0,0,6.843-.854c1.931-.578,2.367-1.192,2.367-1.317S158.489,76.924,156.558,76.336Z" transform="translate(-140.646 -75.473)" fill="#f60"/>
        </g>
      </g>
      <g id="Group_413" data-name="Group 413" transform="translate(22.981 98.29)">
        <g id="Group_412" data-name="Group 412">
          <path id="Path_880" data-name="Path 880" d="M276.365,334.543v-2.67a11.408,11.408,0,0,1-1.869.756,26.317,26.317,0,0,1-7.351.934,27.386,27.386,0,0,1-6.683-.765,11.59,11.59,0,0,1-2.216-.81l.044,2.581v.018c0,.133.392.73,2.269,1.308a24.216,24.216,0,0,0,6.754.845,23.758,23.758,0,0,0,6.772-.872c1.878-.587,2.287-1.2,2.287-1.326Z" transform="translate(-258.246 -331.873)" fill="#f60"/>
        </g>
      </g>
      <g id="Group_415" data-name="Group 415" transform="translate(17.535 84.835)">
        <g id="Group_414" data-name="Group 414">
          <path id="Path_881" data-name="Path 881" d="M210.377,180.673a11.236,11.236,0,0,1-1.922.765,26.562,26.562,0,0,1-7.377.934,32.054,32.054,0,0,1-4.031-.258,10.551,10.551,0,0,1,1.593,3.31c.765.053,1.593.089,2.447.089h.089c1.459-1.6,5.384-2.4,9.2-2.51v-2.332Z" transform="translate(-197.046 -180.673)" fill="#f60"/>
        </g>
      </g>
      <g id="Group_417" data-name="Group 417" transform="translate(22.901 93.369)">
        <g id="Group_416" data-name="Group 416" transform="translate(0 0)">
          <path id="Path_882" data-name="Path 882" d="M273.614,277.329a26.636,26.636,0,0,1-7.271.908,26.3,26.3,0,0,1-7.057-.863,10.921,10.921,0,0,1-1.94-.747l.036,2.047.009.748c.694.863,4.013,1.976,8.944,1.976a24.621,24.621,0,0,0,6.826-.854c1.922-.587,2.34-1.192,2.34-1.317,0-.1.053-.2.053-.294h.009v-2.358A10.158,10.158,0,0,1,273.614,277.329Z" transform="translate(-257.346 -276.573)" fill="#f60"/>
        </g>
      </g>
      <g id="Group_419" data-name="Group 419" transform="translate(22.839 88.964)">
        <g id="Group_418" data-name="Group 418">
          <path id="Path_883" data-name="Path 883" d="M272.558,227.918a24.941,24.941,0,0,0-6.852-.845h-.151a24.22,24.22,0,0,0-6.345.756c-1.842.516-2.474,1.1-2.554,1.344a.067.067,0,0,0-.009.036l.018.036c.053.187.578.792,2.492,1.353a27.656,27.656,0,0,0,13.322-.044c1.976-.587,2.421-1.2,2.429-1.335v-.009C274.9,229.075,274.453,228.488,272.558,227.918Z" transform="translate(-256.646 -227.073)" fill="#f60"/>
        </g>
      </g>
    </g>
  </g>
</svg>
