<svg xmlns="http://www.w3.org/2000/svg" width="45.426" height="45.426" viewBox="0 0 45.426 45.426">
  <g id="onboarding_1_" data-name="onboarding (1)" transform="translate(-1 -1)">
    <g id="Group_435" data-name="Group 435" transform="translate(2.465 6.861)">
      <path id="Path_892" data-name="Path 892" d="M16.921,13.4a2.179,2.179,0,0,1,.556-1.448A7.693,7.693,0,0,0,11.446,9H9.8a3.673,3.673,0,0,0-3.592,2.945l-.176.879a4.619,4.619,0,0,0-2.794,5.795l.476,1.428h.137a2.192,2.192,0,0,1,2.082-1.523h.733v-2.2h8.792v2.2h.733a2.192,2.192,0,0,1,2.1,1.585h.138l.182-.473a7.644,7.644,0,0,0,.51-2.751v-.214a7.692,7.692,0,0,0-.084-1.087,2.195,2.195,0,0,1-2.114-2.19Z" transform="translate(-3 -9)" fill="#f0bc5e"/>
    </g>
    <g id="Group_436" data-name="Group 436" transform="translate(30.307 5.396)">
      <path id="Path_893" data-name="Path 893" d="M49.059,7A8.069,8.069,0,0,0,41,15.059v6.884a5.633,5.633,0,0,0,1.652,4l.059.059a5.242,5.242,0,0,1,3.418-2.15l.72-2.16a4.739,4.739,0,0,1-2.186-3.984V14.327h8.792v3.381a4.738,4.738,0,0,1-2.186,3.984l.72,2.16a5.256,5.256,0,0,1,3.425,2.143l.052-.052a5.63,5.63,0,0,0,1.652-4V15.059A8.069,8.069,0,0,0,49.059,7Z" transform="translate(-41 -7)" fill="#f0bc5e"/>
    </g>
    <g id="Group_437" data-name="Group 437" transform="translate(15.654 1)">
      <path id="Path_894" data-name="Path 894" d="M31.167,1H26.952a5.95,5.95,0,0,0-5.774,7.395l.534,2.139h.152a2.191,2.191,0,0,1,2.066-1.475h.733V8.952a2.2,2.2,0,0,1,1.215-1.966l.533-.267L26.4,6.68a3.23,3.23,0,0,0,2.642,1.937l4.411.442h.733a2.191,2.191,0,0,1,2.066,1.475h.152L36.941,8.4A5.951,5.951,0,0,0,31.167,1Z" transform="translate(-21 -1)" fill="#f0bc5e"/>
    </g>
    <g id="Group_438" data-name="Group 438" transform="translate(1 5.396)">
      <path id="Path_895" data-name="Path 895" d="M33.974,16.362l.077-.155-1.311-.656-.077.155a1.629,1.629,0,0,1-1.465.906H29v1.465h2.2A3.086,3.086,0,0,0,33.974,16.362Z" transform="translate(-8.485 -9.286)"/>
      <path id="Path_896" data-name="Path 896" d="M11,28.078h2.2a3.086,3.086,0,0,0,2.776-1.716l.077-.155-1.311-.656-.077.155a1.629,1.629,0,0,1-1.465.906H11Z" transform="translate(-3.673 -11.959)"/>
      <path id="Path_897" data-name="Path 897" d="M0,0H1.465V3.277H0Z" transform="translate(6.666 7.651) rotate(-26.565)"/>
      <path id="Path_898" data-name="Path 898" d="M0,0H1.465V3.277H0Z" transform="translate(9.595 7.651) rotate(-26.565)"/>
      <path id="Path_899" data-name="Path 899" d="M0,0H1.465V3.277H0Z" transform="translate(34.496 6.192) rotate(-26.565)"/>
      <path id="Path_900" data-name="Path 900" d="M0,0H1.465V3.277H0Z" transform="translate(37.425 6.193) rotate(-26.565)"/>
      <path id="Path_901" data-name="Path 901" d="M41.859,23.219l-.412-1.237A5.45,5.45,0,0,0,43.5,17.708V14.327H42.03v3.381a4,4,0,0,1-2.522,3.726,3.086,3.086,0,0,1-2.282,0A4,4,0,0,1,34.7,17.708V14.327H33.238v3.381a5.446,5.446,0,0,0,2.049,4.273l-.412,1.238a5.982,5.982,0,0,0-3.786,2.874c-.358-.027-.717-.044-1.077-.044h-4.1a1.5,1.5,0,0,0-.277.028l-.391-1.369.388-.582,2.147,1.717,1.264-4.423A7.005,7.005,0,0,1,30.472,22.9l1.194-.85a8.476,8.476,0,0,0-4.45-3.193L27,18.217a3.662,3.662,0,0,0,1.764-2.424h.073a2.931,2.931,0,1,0,0-5.861h-.695l-4.376-.437A2.5,2.5,0,0,1,21.515,7H20.05a3.99,3.99,0,0,0,.115.955,2.908,2.908,0,0,0-1.507,1.975h-.073a2.931,2.931,0,1,0,0,5.861h.074a3.663,3.663,0,0,0,1.764,2.425l-.212.636a8.43,8.43,0,0,0-1.693.724,2.934,2.934,0,0,0-2.864-2.32V15.792H14.188v6.594a2.2,2.2,0,0,1-2.2,2.2H9.059a2.2,2.2,0,0,1-2.2-2.2V15.792H5.4v1.465a2.931,2.931,0,1,0,0,5.861H5.47a3.663,3.663,0,0,0,1.764,2.425l-.212.636A8.459,8.459,0,0,0,1,34.289v11.62l7.84-.784a14.163,14.163,0,0,0,8.575,2.905h7.764a2.2,2.2,0,0,0,2.2-2.2,2.173,2.173,0,0,0-.135-.733h.867a2.2,2.2,0,0,0,2.2-2.2,2.174,2.174,0,0,0-.137-.739,14.159,14.159,0,0,0,8.416-2.9l7.84.784V29.041a5.972,5.972,0,0,0-4.567-5.822ZM30.307,12.861a1.467,1.467,0,0,1-1.465,1.465V11.4A1.467,1.467,0,0,1,30.307,12.861Zm-13.188,0A1.467,1.467,0,0,1,18.584,11.4v2.931A1.467,1.467,0,0,1,17.119,12.861ZM3.931,20.188A1.467,1.467,0,0,1,5.4,18.723v2.931A1.467,1.467,0,0,1,3.931,20.188ZM44.9,28.324l-4.191.419a6,6,0,0,0,1.324-3.772v-.163A4.5,4.5,0,0,1,44.9,28.324Zm-7.356-.091A4.583,4.583,0,0,1,36.3,26.05h4.124a4.518,4.518,0,0,1-2.012,2.786c-.284-.211-.575-.413-.875-.6ZM36.681,22.8a4.546,4.546,0,0,0,3.37,0c.036-.015.068-.036.1-.051l.409,1.227v.613h-4.4v-.613l.409-1.227C36.613,22.759,36.646,22.78,36.681,22.8ZM34.7,24.812v.159A6,6,0,0,0,35.066,27a14.142,14.142,0,0,0-2.377-.683A4.518,4.518,0,0,1,34.7,24.812Zm2.931,5.272v8.05a12.685,12.685,0,0,1-5.958,2.446,2.149,2.149,0,0,0-1.53-2.723,2.179,2.179,0,0,0-1.284-2.874A4.207,4.207,0,0,1,30.2,32.2a3.8,3.8,0,0,0,2.754,1.174h.284V31.911h-.284A2.351,2.351,0,0,1,30.838,30.6a2.9,2.9,0,0,0-2.61-1.616h-.855a1.466,1.466,0,0,1-1.462-1.465h4.1a12.683,12.683,0,0,1,7.622,2.569ZM13.6,27.59a7.02,7.02,0,0,1,.959.358l-.773,2.7L11.721,29Zm-3.075,2.329.77.615-.429.644h-.681l-.429-.644Zm-.18,2.725h.36l.242.847q-.515.265-1.007.572Zm1.953.243-.243-.851.388-.582,1.222.978a14.306,14.306,0,0,0-1.367.456Zm3.557-4.143a7,7,0,0,1,1.46,1.537,2.108,2.108,0,0,0-.059,1.636,13.974,13.974,0,0,0-2.374.232Zm2.729,2.434a.733.733,0,0,1,.733-.733h8.912a1.43,1.43,0,0,1,1.12.544,5.687,5.687,0,0,0-.847.921H19.317a.733.733,0,0,1-.733-.733Zm4.949-5.861h.36l.572,2a1.428,1.428,0,0,0-.02.195,2.9,2.9,0,0,0,.407,1.465H22.487Zm4.184,8.059a5.673,5.673,0,0,0-.312,1.465H22.57a2.9,2.9,0,0,0,.407-1.466h4.74Zm-3.663-9.525h-.681l-.429-.644.77-.615.77.615Zm3.691-3.225-.771,2.7-2.065-1.652,1.88-1.41a6.918,6.918,0,0,1,.955.364Zm-7.7-10.071a1.457,1.457,0,0,1,.724-1.265,3.96,3.96,0,0,0,2.852,1.66l3.751.375v3.733a2.2,2.2,0,0,1-2.2,2.2H22.248a2.2,2.2,0,0,1-2.2-2.2Zm2.2,8.166h2.931a3.547,3.547,0,0,0,.434-.044l.169.507-2.069,1.552-2.068-1.551.169-.507a3.669,3.669,0,0,0,.434.043Zm-1.607,1.542,1.876,1.407-2.065,1.652-.77-2.694A6.991,6.991,0,0,1,20.641,20.265Zm-3.522-.077a1.467,1.467,0,0,1-1.465,1.465V18.723A1.467,1.467,0,0,1,17.119,20.188ZM15.58,23.119h.074a2.922,2.922,0,0,0,2.59-1.588c.046-.037.095-.07.141-.106l1.262,4.42,2.147-1.717.388.582L20.963,28.98H19.317a2.177,2.177,0,0,0-.959.229,8.411,8.411,0,0,0-4.331-3.03l-.212-.636a3.66,3.66,0,0,0,1.764-2.424ZM9.059,26.05H11.99a3.547,3.547,0,0,0,.434-.044l.169.507-2.069,1.552L8.456,26.513l.169-.507a3.669,3.669,0,0,0,.434.043ZM7.448,27.588,9.329,29,7.264,30.651l-.772-2.7A7.092,7.092,0,0,1,7.448,27.588ZM5.194,28.74,6.46,33.171l2.147-1.717L9,32.036l-.777,2.718-5.748-.574A6.988,6.988,0,0,1,5.194,28.74ZM2.465,35.651l5.861.586V43.7l-5.861.585Zm25.644,7.983H18.584V45.1h6.594a.733.733,0,1,1,0,1.465H17.414A12.683,12.683,0,0,1,9.792,44V35.945a12.683,12.683,0,0,1,7.622-2.569h4.1a1.466,1.466,0,0,1-1.462,1.465H18.584v1.465h9.525a.733.733,0,0,1,0,1.465H18.584v1.465h10.99a.733.733,0,0,1,0,1.465H18.584v1.465h9.525a.733.733,0,1,1,0,1.465ZM39.1,37.842V30.376l5.861-.586v8.638Z" transform="translate(-1 -7)"/>
    </g>
  </g>
</svg>
