<svg xmlns="http://www.w3.org/2000/svg" width="73" height="73" viewBox="0 0 73 73">
  <g id="Group_427" data-name="Group 427" transform="translate(-661 -2855)">
    <g id="Data_managament" data-name="Data managament" transform="translate(517 -1898)">
      <circle id="Ellipse_35" data-name="Ellipse 35" cx="36.5" cy="36.5" r="36.5" transform="translate(144 4753)" fill="#fff"/>
    </g>
    <path id="wallet_2_" data-name="wallet (2)" d="M28.925,23.9a.52.52,0,0,1,.522.52v4.614a2.6,2.6,0,0,1-2.6,2.6H2.6a2.6,2.6,0,0,1-2.6-2.6V9.666a2.6,2.6,0,0,1,2.6-2.6H26.847a2.6,2.6,0,0,1,2.6,2.6v4.615a.52.52,0,0,1-.522.52c-.541,0-1.778,0-4.808,0A3.121,3.121,0,0,0,21,17.921v2.86a3.12,3.12,0,0,0,3.12,3.12C27.191,23.9,28.395,23.906,28.925,23.9ZM31.2,17.921v2.86a2.082,2.082,0,0,1-2.079,2.08H24.117a2.082,2.082,0,0,1-2.08-2.08v-2.86a2.082,2.082,0,0,1,2.08-2.08h5.005A2.082,2.082,0,0,1,31.2,17.921Zm-5.135,1.43a.52.52,0,0,0-.52-.52h-.78a.52.52,0,1,0,0,1.04h.78A.52.52,0,0,0,26.067,19.351ZM24.741,3.813l-.485-.143a.521.521,0,0,0-.556.177,3.058,3.058,0,0,0-.746,1.615.52.52,0,0,0,.519.563h2.22a.518.518,0,0,0,.512-.612,2.08,2.08,0,0,0-1.464-1.6ZM21.907,5.52a3.419,3.419,0,0,1,.545-1.7.519.519,0,0,0-.3-.768l-3.3-.971a.512.512,0,0,0-.657.5V5.505a.52.52,0,0,0,.52.52h2.667A.52.52,0,0,0,21.907,5.52ZM9.1,6.025h.715a.52.52,0,0,0,.52-.52V1.02A.52.52,0,0,0,9.816.5H9.1a.52.52,0,0,0-.52.52V5.505A.52.52,0,0,0,9.1,6.025ZM15.081.5H11.9a.52.52,0,0,0-.52.52V5.505a.52.52,0,0,0,.52.52h4.745a.52.52,0,0,0,.52-.52V2.58A2.082,2.082,0,0,0,15.081.5ZM7.02.5H6.305a2.08,2.08,0,0,0-2.08,2.08V5.505a.52.52,0,0,0,.52.52H7.02a.52.52,0,0,0,.52-.52V1.02A.52.52,0,0,0,7.02.5Z" transform="translate(682 2875.5)" fill="#f60"/>
  </g>
</svg>
