<svg xmlns="http://www.w3.org/2000/svg" width="73" height="73" viewBox="0 0 73 73">
  <g id="Group_424" data-name="Group 424" transform="translate(-716 -2440)">
    <g id="Consulting" transform="translate(716 2440)">
      <circle id="Ellipse_34" data-name="Ellipse 34" cx="36.5" cy="36.5" r="36.5" fill="#fff"/>
    </g>
    <g id="rocket" transform="translate(733.94 2458.88)">
      <path id="Path_861" data-name="Path 861" d="M33.491,0C26.7-.118,18.965,3.43,14.065,8.933A18.382,18.382,0,0,0,1.469,14.3a.724.724,0,0,0,.406,1.233l5.583.8-.69.772a.724.724,0,0,0,.029,1l9.31,9.31a.726.726,0,0,0,1,.028l.772-.69.8,5.583a.721.721,0,0,0,.513.559.665.665,0,0,0,.207.032.818.818,0,0,0,.561-.233,18.343,18.343,0,0,0,5.318-12.55C30.78,15.225,34.357,7.489,34.2.711A.728.728,0,0,0,33.491,0Zm-6.675,12.5a3.622,3.622,0,1,1,0-5.122A3.61,3.61,0,0,1,26.816,12.508Z" transform="translate(0.562 -0.001)" fill="#f60"/>
      <path id="Path_862" data-name="Path 862" d="M3.946,17.31C2.4,18.86.268,25.863.03,26.655a.725.725,0,0,0,.694.933.742.742,0,0,0,.209-.03c.792-.238,7.795-2.366,9.345-3.915A4.477,4.477,0,1,0,3.946,17.31Z" transform="translate(0 7.176)" fill="#f60"/>
    </g>
  </g>
</svg>
