<svg id="Seo" xmlns="http://www.w3.org/2000/svg" width="32.982" height="32.981" viewBox="0 0 32.982 32.981">
  <g id="Group_33" data-name="Group 33" transform="translate(0 5.497)">
    <path id="Path_80" data-name="Path 80" d="M13.742,31.485A13.742,13.742,0,1,1,27.485,17.742,13.783,13.783,0,0,1,13.742,31.485Zm0-26.111A12.368,12.368,0,1,0,26.111,17.742,12.317,12.317,0,0,0,13.742,5.374Z" transform="translate(0 -4)" fill="#fff"/>
  </g>
  <g id="Group_34" data-name="Group 34" transform="translate(4.81 10.307)">
    <path id="Path_81" data-name="Path 81" d="M12.433,25.365a8.933,8.933,0,1,1,8.933-8.933A8.915,8.915,0,0,1,12.433,25.365Zm0-16.491a7.558,7.558,0,1,0,0,15.117,7.558,7.558,0,1,0,0-15.117Z" transform="translate(-3.5 -7.5)" fill="#fff"/>
  </g>
  <g id="Group_35" data-name="Group 35" transform="translate(9.62 15.117)">
    <path id="Path_82" data-name="Path 82" d="M11.123,19.245a4.123,4.123,0,0,1,0-8.245,4.123,4.123,0,1,1,0,8.245Zm0-6.871a2.748,2.748,0,1,0,2.748,2.748A2.757,2.757,0,0,0,11.123,12.374Z" transform="translate(-7 -11)" fill="#fff"/>
  </g>
  <g id="Group_36" data-name="Group 36" transform="translate(12.987 8.314)">
    <path id="Path_83" data-name="Path 83" d="M10.206,17.662a.826.826,0,0,1-.55-.137.664.664,0,0,1,0-.962L19.963,6.256a.68.68,0,1,1,.962.962L10.618,17.525c0,.137-.275.137-.412.137Z" transform="translate(-9.45 -6.05)" fill="#fff"/>
  </g>
  <g id="Group_37" data-name="Group 37" transform="translate(23.362 0)">
    <path id="Path_84" data-name="Path 84" d="M21.123,9.62H17.687A.649.649,0,0,1,17,8.933V5.5c0-.137.137-.412.137-.55l4.81-4.81A1.743,1.743,0,0,1,22.772,0a.756.756,0,0,1,.412.687V3.436h2.748a.756.756,0,0,1,.687.412,1.743,1.743,0,0,1-.137.825l-4.81,4.81C21.535,9.482,21.26,9.62,21.123,9.62ZM18.374,8.245h2.474L24.283,4.81H22.5a.649.649,0,0,1-.687-.687V2.336L18.374,5.772Z" transform="translate(-17 0)" fill="#fff"/>
  </g>
</svg>
