<svg xmlns="http://www.w3.org/2000/svg" width="39.23" height="45.199" viewBox="0 0 39.23 45.199">
  <g id="shield" transform="translate(-19.258)">
    <g id="Group_440" data-name="Group 440" transform="translate(19.258)">
      <circle id="Ellipse_100" data-name="Ellipse 100" cx="10.171" cy="10.171" r="10.171" transform="translate(12.35 9.5)" fill="#f9ba48"/>
      <path id="Path_907" data-name="Path 907" d="M56.868,2.962A39.735,39.735,0,0,1,42.049.108L41.779,0l-.27.108a39.738,39.738,0,0,1-14.82,2.854H25.07V18.218H21.437A2.182,2.182,0,0,0,19.258,20.4v12.35a2.182,2.182,0,0,0,2.179,2.18h6.542a18.861,18.861,0,0,0,6.928,6.524L41.779,45.2l6.871-3.748a18.866,18.866,0,0,0,9.838-16.572V2.962ZM20.711,32.747V20.4a.727.727,0,0,1,.726-.726h6.538a.727.727,0,0,1,.726.726v12.35a.727.727,0,0,1-.726.727H21.437A.727.727,0,0,1,20.711,32.747Zm9.444-10.9a4.617,4.617,0,0,0,4.359-4.6V13.5a1.816,1.816,0,1,1,3.632,0v4.572A2.332,2.332,0,0,0,40.476,20.4H45.8a2.519,2.519,0,0,1,2.516,2.516v8.045A2.519,2.519,0,0,1,45.8,33.474H35.1a1.719,1.719,0,0,1-1.432-.766,3.168,3.168,0,0,0-2.641-1.413h-.87V21.844Zm26.88,3.034a17.415,17.415,0,0,1-9.08,15.3l-6.176,3.369L35.6,40.175a17.424,17.424,0,0,1-6.234-5.766,2.164,2.164,0,0,0,.772-1.518A15.9,15.9,0,0,0,36.3,38.9l5.48,2.989,5.48-2.989a15.961,15.961,0,0,0,8.323-14.02V13.859H54.129v11.02a14.508,14.508,0,0,1-7.566,12.745l-4.785,2.61-4.785-2.61a14.459,14.459,0,0,1-5.059-4.6,1.706,1.706,0,0,1,.522.494A3.168,3.168,0,0,0,35.1,34.927H45.8a3.973,3.973,0,0,0,3.969-3.969V22.913A3.973,3.973,0,0,0,45.8,18.944H40.476a.877.877,0,0,1-.876-.876V13.5a3.269,3.269,0,1,0-6.538,0v3.743a3.152,3.152,0,0,1-2.909,3.133,2.165,2.165,0,0,0-.724-1.587V7.237A44.047,44.047,0,0,0,41.779,4.67a44.054,44.054,0,0,0,12.35,2.567v.81h1.453V5.855l-.693-.032A42.626,42.626,0,0,1,42.031,3.215l-.252-.094-.252.093A42.636,42.636,0,0,1,28.669,5.822l-.693.033V18.218H26.522V4.415h.166a41.17,41.17,0,0,0,15.09-2.851,41.17,41.17,0,0,0,15.09,2.851h.166V24.878h0Z" transform="translate(-19.258)" fill="#333"/>
      <rect id="Rectangle_265" data-name="Rectangle 265" width="1.453" height="1.453" transform="translate(34.871 10.953)" fill="#333"/>
      <rect id="Rectangle_266" data-name="Rectangle 266" width="5.085" height="1.453" transform="translate(2.906 30.568)" fill="#333"/>
    </g>
  </g>
</svg>
