<svg xmlns="http://www.w3.org/2000/svg" width="39.709" height="39.71" viewBox="0 0 39.709 39.71">
  <g id="stock-market" transform="translate(-1 -1)">
    <g id="Group_441" data-name="Group 441" transform="translate(4.202 15.09)">
      <path id="Path_908" data-name="Path 908" d="M6,23H8.562v6.4H6Z" transform="translate(-6 -23)" fill="#f0bc5e"/>
    </g>
    <g id="Group_442" data-name="Group 442" transform="translate(9.326 13.169)">
      <path id="Path_909" data-name="Path 909" d="M14,20h2.562v5.124H14Z" transform="translate(-14 -20)" fill="#f0bc5e"/>
    </g>
    <g id="Group_443" data-name="Group 443" transform="translate(14.45 9.967)">
      <path id="Path_910" data-name="Path 910" d="M22,15h2.562v3.843H22Z" transform="translate(-22 -15)" fill="#f0bc5e"/>
    </g>
    <g id="Group_445" data-name="Group 445" transform="translate(21.495 1)">
      <g id="Group_444" data-name="Group 444">
        <path id="Path_911" data-name="Path 911" d="M42.607,20.214a9.607,9.607,0,1,1,9.607-9.607A9.618,9.618,0,0,1,42.607,20.214Zm0-16.012a6.4,6.4,0,1,0,6.4,6.4A6.412,6.412,0,0,0,42.607,4.2Z" transform="translate(-33 -1)" fill="#f0bc5e"/>
      </g>
    </g>
    <g id="Group_446" data-name="Group 446" transform="translate(1 3.562)">
      <path id="Path_912" data-name="Path 912" d="M45.921,17.967H47.2V16.686a1.921,1.921,0,1,0,0-3.843H45.921a.64.64,0,0,1,0-1.281h1.921v.64h1.281V10.281H47.2V9H45.921v1.281a1.921,1.921,0,0,0,0,3.843H47.2a.64.64,0,1,1,0,1.281H45.281v-.64H44v1.921h1.921Z" transform="translate(-16.46 -6.438)"/>
      <path id="Path_913" data-name="Path 913" d="M7,18H8.281v3.2H7Z" transform="translate(-3.157 -9.674)"/>
      <path id="Path_914" data-name="Path 914" d="M7,33H8.281v3.2H7Z" transform="translate(-3.157 -15.067)"/>
      <path id="Path_915" data-name="Path 915" d="M15,15h1.281v3.2H15Z" transform="translate(-6.033 -8.595)"/>
      <path id="Path_916" data-name="Path 916" d="M15,28h1.281v3.2H15Z" transform="translate(-6.033 -13.269)"/>
      <path id="Path_917" data-name="Path 917" d="M23,10h1.281v3.2H23Z" transform="translate(-8.91 -6.798)"/>
      <path id="Path_918" data-name="Path 918" d="M23,21h1.281v3.2H23Z" transform="translate(-8.91 -10.752)"/>
      <path id="Path_919" data-name="Path 919" d="M36.867,48.476H34.3V28.7a9.472,9.472,0,0,1-1.281.367V48.476H30.462V31.448L32.809,29.1a9.607,9.607,0,0,1-1.707.161c-.085,0-.168-.01-.252-.013l-3.215,3.215H21.815l-3.843,5.124H10.316L1,48.235v1.522H38.148V26.164a9.68,9.68,0,0,1-1.281,1.158Zm-26.9,0H7.4V42.861l2.562-2.928Zm1.281-9.607H13.81v9.607H11.248Zm3.843,0h2.562v9.607H15.09Zm3.843-.427L21.5,35.026v13.45H18.933Zm3.843-4.7h2.562V48.476H22.776ZM6.124,44.325v4.151H2.492Zm23.057,4.151H26.619V33.745h1.546l1.016-1.016Z" transform="translate(-1 -12.609)"/>
      <path id="Path_920" data-name="Path 920" d="M9.7,37.679h7.7l4.483-5.124h5.1L29.132,30.4a9.479,9.479,0,0,1-1.388-.423l-1.294,1.294H21.3L16.817,36.4H9.142L1.266,44.929l.941.869Z" transform="translate(-1.096 -13.981)"/>
      <path id="Path_921" data-name="Path 921" d="M44.045,19.09A7.045,7.045,0,1,0,37,12.045,7.054,7.054,0,0,0,44.045,19.09Zm0-12.81a5.764,5.764,0,1,1-5.764,5.764A5.77,5.77,0,0,1,44.045,6.281Z" transform="translate(-13.943 -5)"/>
    </g>
  </g>
</svg>
