<svg xmlns="http://www.w3.org/2000/svg" width="15.475" height="12.569" viewBox="0 0 15.475 12.569">
  <path id="Icon_awesome-twitter" data-name="Icon awesome-twitter" d="M13.885,6.513c.01.137.01.275.01.412A8.962,8.962,0,0,1,4.87,15.95,8.963,8.963,0,0,1,0,14.526a6.561,6.561,0,0,0,.766.039A6.352,6.352,0,0,0,4.7,13.21a3.177,3.177,0,0,1-2.966-2.2,4,4,0,0,0,.6.049,3.354,3.354,0,0,0,.835-.108A3.172,3.172,0,0,1,.628,7.839V7.8a3.194,3.194,0,0,0,1.434.4A3.176,3.176,0,0,1,1.08,3.96,9.015,9.015,0,0,0,7.62,7.279a3.58,3.58,0,0,1-.079-.727,3.175,3.175,0,0,1,5.489-2.17,6.244,6.244,0,0,0,2.013-.766,3.163,3.163,0,0,1-1.394,1.748,6.358,6.358,0,0,0,1.826-.491,6.818,6.818,0,0,1-1.591,1.64Z" transform="translate(0 -3.381)" fill="#fff"/>
</svg>
