<svg xmlns="http://www.w3.org/2000/svg" width="34" height="35" viewBox="0 0 34 35">
  <g id="Youtube" transform="translate(-0.385)">
    <ellipse id="Ellipse_52" data-name="Ellipse 52" cx="17" cy="17.5" rx="17" ry="17.5" transform="translate(0.385)" fill="#01f"/>
    <path id="Icon_metro-youtube" data-name="Icon metro-youtube" d="M6.908,1.928,5.885,3.814,4.861,1.928H3.556L5.4,4.915l.011-.006v2.3h.947v-2.3l.011.006L8.214,1.928ZM9.672,3.688a.464.464,0,0,1,.473.44V5.887a.475.475,0,0,1-.947,0V4.127a.464.464,0,0,1,.473-.44Zm0-.88a1.377,1.377,0,0,0-1.42,1.32V5.887a1.424,1.424,0,0,0,2.841,0V4.127a1.377,1.377,0,0,0-1.42-1.32Zm4.261,0V6.271c-.413.32-.947.513-.947-.627V2.808h-.947V5.823h0c.015.727.18,2.037,1.892.972v.412h.947v-4.4h-.947Zm1.42,8.8a.458.458,0,0,0-.473.44v.44h.947v-.44a.458.458,0,0,0-.473-.44Zm-4.261.44v2.309c.321.3.947.33.947-.11V12.183C12.039,11.743,11.566,11.605,11.093,12.045Zm6.551-2.123a1.813,1.813,0,0,0-.589-1.24,2.093,2.093,0,0,0-1.347-.523c-1.032-.048-3.395-.072-5.47-.072S5.632,8.11,4.6,8.158a2.093,2.093,0,0,0-1.347.523,1.813,1.813,0,0,0-.589,1.24c-.062,1.033-.093,1.407-.093,1.923s.031,1.291.093,2.323a1.814,1.814,0,0,0,.589,1.24,2.093,2.093,0,0,0,1.347.523c1.032.048,3.563.072,5.638.072s4.437-.024,5.47-.072a2.093,2.093,0,0,0,1.347-.523,1.813,1.813,0,0,0,.589-1.24q.077-1.291.077-2.323c0-.688-.026-1.063-.077-1.923Zm-12.232,5.2H4.464v-4.4H3.518v-.88H6.358v.88H5.411Zm3.787,0H8.252v-.412c-1.8.939-1.878.03-1.892-.7h0v-2.41h.947v2.424c0,.532.534.48.947.16V11.605H9.2Zm3.787-.892c0,.919-1.014,1.188-1.894.473v.42h-.947V9.846h.947v1.43c.947-.88,1.894-.55,1.894.33Zm3.787-1.747v.44H14.88v.88a.475.475,0,0,0,.947,0v-.44h.947v.44a1.424,1.424,0,0,1-2.841,0V12.045a1.424,1.424,0,0,1,2.841,0Z" transform="translate(7.116 8.579)" fill="#fff"/>
  </g>
</svg>
